<?xml version="1.0" encoding="utf-8"?>
<!-- Generator: Adobe Illustrator 17.0.0, SVG Export Plug-In . SVG Version: 6.00 Build 0)  -->
<!DOCTYPE svg PUBLIC "-//W3C//DTD SVG 1.1//EN" "http://www.w3.org/Graphics/SVG/1.1/DTD/svg11.dtd">
<svg version="1.1" id="Layer_1" xmlns="http://www.w3.org/2000/svg" xmlns:xlink="http://www.w3.org/1999/xlink" x="0px" y="0px"
	 width="260px" height="50px" viewBox="0 0 260 50" enable-background="new 0 0 260 50" xml:space="preserve">
<g>
	<g>
		<path fill="none" d="M36.923,20.171c-1.032-0.171-3.01-0.35-5.007-0.431c-0.013,1.223-0.023,2.321-0.023,2.321
			c0.013,1.202,0.078,2.34,0.482,2.864c0.638,0.612,1.484,1.092,2.707,1.142c1.488,0.067,3.112,0.102,4.707,0.108
			c-0.004-0.212-0.029-1.286-0.029-1.357C39.668,22.206,39.63,20.783,36.923,20.171z"/>
		<path fill="none" d="M34.823,29.617c-0.27-0.017-0.705-0.03-0.964-0.054c-1.053-0.098-1.988-0.234-2.681-0.423
			c-3.239-0.657-3.423-4.074-3.423-4.074c-0.017-0.261-0.075-1.028-0.072-1.984c-0.005-0.234,0.005-3.357,0.005-3.357l-0.303-0.004
			c-2.026,0.014-3.395,0.087-4.715,0.256c-2.254,0.29-3.103,1.779-3.233,2.947c-0.13,1.165-0.12,4.329-0.12,4.329l0.063,3.029
			c0.095,0.952,0.161,1.85,0.8,2.513c0.832,0.862,2.421,1.363,4.593,1.37c1.846,0.005,8.413,0.086,11.245-0.169
			c2.833-0.258,3.565-1.858,3.678-3.955l0.004-0.263l-0.115-0.003C38.057,29.769,36.357,29.728,34.823,29.617z"/>
		<path fill="none" d="M28.15,37.773c-3.652-0.032-7.055-0.325-8.915-0.818c-3.595-0.873-3.964-4.262-3.964-7.381l-0.047-2.398
			c0,0-3.357,0.077-4.975,0.336c-4.066,0.523-3.998,4.016-3.998,5.765c0,1.748,0,2.117,0,2.117c0.015,1.524,0.094,3.313,0.815,4.119
			c1.105,1.235,2.968,2.144,11.39,2.201c3.343,0.004,6.918-0.353,8.222-0.454c2.762-0.258,3.79-1.447,3.915-3.445l-0.006-0.069
			L28.15,37.773z"/>
		<path fill="none" d="M49.288,18.077c-0.082-2.287-0.429-3.42-2.252-3.817c-1.823-0.397-10.267-0.538-12.205-0.251
			c-1.709,0.254-2.566,0.503-2.805,1.965c3.503,0.053,6.23,0.377,7.82,0.799c3.597,0.87,3.679,4.671,3.679,7.789l0.017,1.57
			c1.056-0.03,2.032-0.072,2.841-0.13c3.353-0.147,2.848-3.256,2.883-3.96C49.264,22.054,49.288,18.307,49.288,18.077z"/>
		<path fill="#F29F95" d="M39.845,16.772c-1.59-0.422-4.317-0.746-7.82-0.799c-0.033,0.196-0.055,0.411-0.066,0.655
			c-0.013,0.466-0.029,1.855-0.043,3.112c1.998,0.081,3.975,0.26,5.007,0.431c2.707,0.612,2.745,2.035,2.838,4.648
			c0,0.071,0.025,1.144,0.029,1.357c1.303,0.005,2.577-0.011,3.75-0.044l-0.017-1.57C43.523,21.443,43.441,17.641,39.845,16.772z"/>
		<path fill="none" d="M30.496,30.699c-0.165-0.915-0.342-1.618-0.8-2.158c-0.242-0.158-0.45-0.337-0.635-0.527
			c-0.369-0.22-0.836-0.401-1.462-0.542c-3.808-0.384-7.676-0.314-8.282-0.301c0,0.049,0,0.082,0,0.082l0.063,3.029
			c0.095,0.952,0.161,1.85,0.8,2.513c0.832,0.862,2.421,1.363,4.593,1.37c1.003,0.002,3.4,0.027,5.834,0.009
			c-0.001-0.161-0.009-1.149-0.009-1.268C30.571,32.191,30.598,31.266,30.496,30.699z"/>
		<path fill="none" d="M28.15,37.773c-3.652-0.032-7.055-0.325-8.915-0.818c-3.595-0.873-3.964-4.262-3.964-7.381l-0.047-2.398
			c0,0-3.357,0.077-4.975,0.336c-4.066,0.523-3.998,4.016-3.998,5.765c0,1.748,0,2.117,0,2.117c0.015,1.524,0.094,3.313,0.815,4.119
			c1.105,1.235,2.968,2.144,11.39,2.201c3.343,0.004,6.918-0.353,8.222-0.454c2.762-0.258,3.79-1.447,3.915-3.445l-0.006-0.069
			L28.15,37.773z"/>
		<path fill="none" d="M27.686,23.36c-0.001-0.094-0.004-0.179-0.003-0.277c-0.005-0.234,0.005-3.357,0.005-3.357l-0.303-0.004
			c-2.026,0.014-3.395,0.087-4.715,0.256c-2.254,0.29-3.103,1.779-3.233,2.947c-0.006,0.048-0.01,0.104-0.015,0.159
			C19.861,23.08,24.349,23.056,27.686,23.36z"/>
		<path fill="none" d="M34.823,29.617c-0.059-0.004-0.141-0.007-0.212-0.011c0.009,0.091,0.021,0.182,0.029,0.272
			c0.079,0.935,0.086,1.889,0.086,2.791l-0.018,1.412c0.488-0.023,0.933-0.05,1.309-0.085c2.833-0.258,3.565-1.858,3.678-3.955
			l0.004-0.263l-0.115-0.003C38.057,29.769,36.357,29.728,34.823,29.617z"/>
		<path fill="none" d="M49.288,18.077c-0.082-2.287-0.429-3.42-2.252-3.817c-1.823-0.397-10.267-0.538-12.205-0.251
			c-1.709,0.254-2.566,0.503-2.805,1.965c-0.033,0.196-0.055,0.411-0.066,0.655c-0.013,0.466-0.029,1.855-0.043,3.112
			c-0.013,1.223-0.023,2.321-0.023,2.321c0.013,1.202,0.078,2.34,0.482,2.864c0.638,0.612,1.484,1.092,2.707,1.142
			c1.488,0.067,3.112,0.102,4.707,0.108c1.303,0.005,2.577-0.011,3.75-0.044c1.056-0.03,2.032-0.072,2.841-0.13
			c3.353-0.147,2.848-3.256,2.883-3.96C49.264,22.054,49.288,18.307,49.288,18.077z"/>
		<path fill="#F29F95" d="M34.64,29.879c-0.008-0.091-0.02-0.182-0.029-0.272c-0.255-0.012-0.55-0.023-0.752-0.043
			c-1.053-0.098-1.988-0.234-2.681-0.423c-0.59-0.12-1.077-0.332-1.481-0.599c0.458,0.54,0.635,1.243,0.8,2.158
			c0.102,0.567,0.075,1.492,0.101,2.207c0,0.119,0.008,1.108,0.009,1.268c1.451-0.011,2.912-0.037,4.103-0.093l0.018-1.412
			C34.726,31.768,34.719,30.813,34.64,29.879z"/>
		<path fill="#F29F95" d="M27.599,27.472c0.626,0.141,1.092,0.323,1.462,0.542c-1.208-1.233-1.306-2.948-1.306-2.948
			c-0.015-0.234-0.062-0.887-0.069-1.706c-3.337-0.304-7.826-0.28-8.264-0.276c-0.104,1.147-0.106,3.626-0.106,4.087
			C19.923,27.158,23.792,27.088,27.599,27.472z"/>
		<path fill="#D13239" d="M29.061,28.014c0.186,0.19,0.394,0.369,0.635,0.527C29.528,28.344,29.32,28.169,29.061,28.014z"/>
		<path fill="#CC3333" d="M49.496,11.087c-1.844-0.483-6.979-0.569-8.913-0.567c-1.935,0.001-7.352,0.061-9.495,0.608
			c-2.34,0.561-3.302,2.36-3.352,4.529l-0.004,0.325l-0.261,0.005c-4.961-0.045-6.306,0.125-8.175,0.622
			c-2.639,0.638-3.874,3.058-3.965,5.102l-0.059,0.526l-0.056,0.865l-0.294,0.011c-3.737,0.069-6.347,0.307-8.186,0.795
			c-2.928,0.709-4.233,3.491-4.46,5.855c-0.227,2.364-0.146,6.344-0.146,6.344c0,3.462,0.407,7.224,4.398,8.191
			c2.064,0.547,6.122,1.104,10.176,1.138l5.928-0.04c3.185-0.085,5.932-0.511,7.77-1.098c3.348-1.045,4.182-3.717,4.358-6.613
			l0.004-0.061l0.059-0.004c2.044-0.11,3.418-0.319,4.696-0.726c3.285-1.025,3.918-3.952,3.995-6.852l0.009-0.319l0.698-0.014
			c2.546-0.067,3.954-0.3,5.274-0.646c3.192-0.763,3.517-4.016,3.517-6.744l0.015-4.274C53.028,15.314,52.687,11.848,49.496,11.087z
			 M26.678,41.261c-1.305,0.101-4.879,0.458-8.222,0.454c-8.422-0.056-10.286-0.965-11.39-2.201c-0.721-0.806-0.8-2.596-0.815-4.119
			c0,0,0-0.369,0-2.117c0-1.749-0.067-5.243,3.998-5.765c1.618-0.259,4.975-0.336,4.975-0.336l0.047,2.398
			c0,3.119,0.369,6.508,3.964,7.381c1.86,0.493,5.263,0.786,8.915,0.818l2.437-0.026l0.006,0.069
			C30.468,39.814,29.44,41.003,26.678,41.261z M39.695,30.042c-0.113,2.096-0.844,3.697-3.678,3.955
			c-0.376,0.034-0.821,0.061-1.309,0.085c-1.191,0.056-2.652,0.082-4.103,0.093c-2.434,0.018-4.831-0.006-5.834-0.009
			c-2.172-0.007-3.762-0.508-4.593-1.37c-0.638-0.664-0.705-1.562-0.8-2.513l-0.063-3.029c0,0,0-0.033,0-0.082
			c-0.001-0.461,0.002-2.94,0.106-4.087c0.005-0.055,0.009-0.112,0.015-0.159c0.13-1.168,0.979-2.657,3.233-2.947
			c1.321-0.169,2.689-0.243,4.715-0.256l0.303,0.004c0,0-0.01,3.123-0.005,3.357c-0.001,0.098,0.002,0.183,0.003,0.277
			c0.007,0.819,0.053,1.472,0.069,1.706c0,0,0.098,1.715,1.306,2.948c0.259,0.155,0.467,0.33,0.635,0.527
			c0.404,0.266,0.891,0.478,1.481,0.599c0.693,0.189,1.629,0.325,2.681,0.423c0.202,0.02,0.497,0.031,0.752,0.043
			c0.07,0.004,0.153,0.007,0.212,0.011c1.535,0.11,3.235,0.152,4.761,0.159l0.115,0.003L39.695,30.042z M46.381,26.001
			c-0.809,0.058-1.785,0.1-2.841,0.13c-1.173,0.033-2.447,0.049-3.75,0.044c-1.595-0.006-3.219-0.04-4.707-0.108
			c-1.224-0.05-2.069-0.53-2.707-1.142c-0.404-0.524-0.469-1.662-0.482-2.864c0,0,0.01-1.098,0.023-2.321
			c0.014-1.257,0.03-2.646,0.043-3.112c0.01-0.244,0.033-0.459,0.066-0.655c0.239-1.462,1.097-1.711,2.805-1.965
			c1.939-0.287,10.383-0.146,12.205,0.251c1.823,0.397,2.17,1.531,2.252,3.817c0,0.231-0.023,3.977-0.023,3.965
			C49.229,22.746,49.734,25.854,46.381,26.001z"/>
	</g>
	<g>
		<path fill="#CC3333" d="M174.463,14.53c-1.67,0-2.439,0.809-2.439,2.108c0,1.305,0.769,2.115,2.439,2.115
			c1.672,0,2.439-0.81,2.439-2.115C176.902,15.339,176.135,14.53,174.463,14.53z"/>
		<path fill="#CC3333" d="M95.73,26.238c0-4.831-2.227-6.242-8.403-6.242c-6.174,0-8.398,0.145-8.398,9.599
			c0,9.451,2.224,10.923,8.398,10.923c4.204,0,7.142-0.841,7.142-0.841l0.42-3.782c0,0-3.445,1.26-7.562,1.26
			c-2.77,0-3.948-0.881-4.157-5.878h4.157C93.503,31.276,95.73,31.151,95.73,26.238z M87.327,23.356
			c3.068,0,4.204,0.569,4.204,2.881c0,2.224-1.137,1.776-4.204,1.776l-4.157-0.1C83.379,22.915,84.557,23.356,87.327,23.356z"/>
		<path fill="#CC3333" d="M112.913,14.39h-4.202l-0.002,5.761c-1-0.042-2.688-0.13-4.106-0.13c-6.174,0-7.784,1.482-7.784,10.934
			v9.141h4.203v-9.141c0-6.511,0.572-7.54,3.638-7.54c1.343,0,2.937-0.002,4.053,0.093l-0.002,6.088
			c0,9.031,2.227,10.923,8.4,10.923v-3.364c-2.31,0-4.198-0.42-4.198-7.559v-6.089h4.198v-3.358h-4.198V14.39z"/>
		<path fill="#CC3333" d="M63.682,19.996c-1.773,0-3.317,0.148-4.512,0.321v3.497c1.268-0.245,2.83-0.457,4.512-0.457
			c2.772,0,3.947-0.442,4.157,4.557h-4.157c-6.174,0-8.402,1.176-8.402,6.092c0,4.83,2.228,6.512,8.402,6.512
			c6.173,0,8.4-1.472,8.4-10.923C72.082,20.141,69.855,19.996,63.682,19.996z M63.682,37.154c-3.067,0-4.202-0.841-4.202-3.149
			c0-2.226,1.135-2.729,4.202-2.729h4.157C67.629,36.273,66.454,37.154,63.682,37.154z"/>
		<rect x="73.404" y="14.39" fill="#CC3333" width="4.202" height="25.706"/>
		<path fill="#CC3333" d="M162.666,34.674c0,0-0.293,2.06-0.418,2.522l-0.42-2.522l-4.35-14.536h-4.203
			c1.975,6.175,5.611,17.648,5.611,17.648c0.8,2.1,2.1,2.732,3.361,2.732s2.689-0.632,3.36-2.732l5.686-17.641h-4.198
			C165.543,25.015,162.666,34.674,162.666,34.674z"/>
		<path fill="#CC3333" d="M130.638,20.14c-1.132-0.17-2.517-0.144-4.199-0.144c-6.088,0-8.317,0.102-8.399,9.599
			c0,9.451,2.224,10.923,8.399,10.923c7.983,0,8.404-1.263,8.404-10.923V14.39h-4.204L130.638,20.14z M130.639,29.595
			c0,7.14-0.417,7.559-4.2,7.559c-3.064,0-4.198-1.049-4.198-7.559c0.039-6.552,1.217-6.238,4.198-6.238
			c1.558,0,2.983-0.06,4.203,0.191L130.639,29.595z"/>
		<path fill="#CC3333" d="M186.497,19.996c-6.175,0-8.403,1.2-8.403,10.649v9.45h4.203v-9.45c0-6.507,1.133-7.289,4.2-7.289
			c3.068,0,4.203,0.781,4.203,7.289v9.45h4.198v-9.45C194.897,21.196,192.672,19.996,186.497,19.996z"/>
		<path fill="#CC3333" d="M204.605,19.996c-6.171,0-8.398,1.2-8.398,10.649c0.081,9.496,2.306,9.872,8.398,9.872
			c1.681,0,3.025-0.126,4.157-0.297v1.175c0,2.581-1.386,4.242-4.157,4.242c-3.035,0-5.699-0.68-6.894-1.038v3.527
			c0.336,0.109,2.973,0.873,6.894,0.873c6.173,0,8.403-2.765,8.403-9.28v-9.075C213.008,21.196,210.778,19.996,204.605,19.996z
			 M208.804,36.735c-1.218,0.251-2.646,0.42-4.199,0.42c-2.939,0-4.199,0.048-4.199-6.509c0-6.507,1.132-7.289,4.199-7.289
			c3.069,0,4.199,0.781,4.199,7.289V36.735z"/>
		<path fill="#CC3333" d="M143.937,20.086c-6.174,0-7.827,1.379-7.827,10.828v9.182h4.199v-9.182c0-6.508,0.562-7.468,3.629-7.468
			c1.424,0,2.962,0.017,4.096,0.116l0.017,16.544h4.2l-0.003-19.968h-4.222C148.026,20.138,146.29,20.086,143.937,20.086z"/>
		<rect x="172.363" y="20.147" fill="#CC3333" width="4.2" height="19.948"/>
		<path fill="#CC3333" d="M150.322,14.53c-1.668,0-2.439,0.809-2.439,2.108c0,1.305,0.77,2.115,2.439,2.115
			c1.672,0,2.439-0.81,2.439-2.115C152.761,15.339,151.994,14.53,150.322,14.53z"/>
	</g>
	<g>
		<path fill="#CC3333" d="M59.534,7.109c0.143,0.292,0.342,0.508,0.595,0.65c0.251,0.14,0.58,0.209,0.983,0.209
			c0.311,0,0.577-0.054,0.797-0.159c0.223-0.106,0.414-0.288,0.575-0.545H62.5v0.603h0.969V4.349H61.34v0.969h0.868v0.667
			c0,0.177-0.028,0.331-0.082,0.461c-0.055,0.131-0.125,0.238-0.208,0.325c-0.079,0.086-0.169,0.148-0.264,0.193
			c-0.094,0.042-0.181,0.063-0.26,0.063c-0.19,0-0.342-0.06-0.461-0.179c-0.119-0.118-0.21-0.288-0.275-0.511
			c-0.064-0.223-0.108-0.491-0.131-0.807c-0.024-0.316-0.037-0.67-0.037-1.061c0-0.816,0.071-1.402,0.212-1.757
			c0.139-0.35,0.367-0.529,0.684-0.529c0.133,0,0.247,0.037,0.342,0.105c0.094,0.07,0.173,0.16,0.233,0.265
			c0.061,0.107,0.105,0.223,0.134,0.353c0.026,0.126,0.04,0.253,0.04,0.374h1.26c0-0.666-0.158-1.175-0.474-1.531
			c-0.317-0.357-0.835-0.536-1.554-0.536c-0.42,0-0.771,0.071-1.051,0.213c-0.281,0.137-0.508,0.346-0.677,0.624
			c-0.17,0.277-0.291,0.621-0.361,1.037c-0.07,0.415-0.104,0.895-0.104,1.445c0,0.565,0.023,1.062,0.073,1.493
			C59.295,6.454,59.393,6.817,59.534,7.109z"/>
		<polygon fill="#CC3333" points="68.825,6.79 66.493,6.79 66.493,1.342 65.177,1.342 65.177,7.867 68.825,7.867 		"/>
		<path fill="#CC3333" d="M73.838,2.166c-0.156-0.299-0.379-0.532-0.672-0.702c-0.294-0.163-0.687-0.25-1.179-0.25
			c-0.495,0-0.887,0.087-1.181,0.25c-0.292,0.169-0.515,0.402-0.672,0.702c-0.155,0.297-0.254,0.657-0.301,1.073
			c-0.045,0.418-0.068,0.873-0.068,1.367c0,0.499,0.023,0.956,0.068,1.373c0.047,0.412,0.147,0.77,0.301,1.067
			c0.156,0.299,0.38,0.527,0.672,0.684c0.293,0.159,0.686,0.238,1.181,0.238c0.492,0,0.885-0.079,1.179-0.238
			c0.293-0.157,0.516-0.385,0.672-0.684c0.155-0.297,0.256-0.655,0.302-1.067c0.046-0.417,0.067-0.873,0.067-1.373
			c0-0.493-0.021-0.948-0.067-1.367C74.093,2.823,73.992,2.462,73.838,2.166z M72.858,5.723c-0.02,0.309-0.063,0.559-0.127,0.751
			c-0.064,0.193-0.155,0.334-0.275,0.42c-0.117,0.088-0.275,0.134-0.469,0.134c-0.195,0-0.351-0.045-0.471-0.134
			c-0.12-0.086-0.211-0.227-0.275-0.42c-0.063-0.191-0.107-0.442-0.128-0.751c-0.023-0.307-0.033-0.68-0.033-1.117
			c0-0.439,0.01-0.811,0.033-1.118c0.021-0.302,0.064-0.552,0.128-0.748c0.064-0.194,0.155-0.336,0.275-0.423
			c0.12-0.09,0.276-0.134,0.471-0.134c0.194,0,0.352,0.044,0.469,0.134c0.12,0.087,0.211,0.229,0.275,0.423
			c0.064,0.196,0.107,0.447,0.127,0.748c0.023,0.307,0.034,0.678,0.034,1.118C72.891,5.043,72.88,5.416,72.858,5.723z"/>
		<path fill="#CC3333" d="M78.971,4.441V4.424c0.331-0.094,0.578-0.266,0.743-0.519c0.163-0.253,0.245-0.555,0.245-0.908
			c0-0.312-0.045-0.574-0.137-0.788c-0.092-0.213-0.221-0.384-0.384-0.511c-0.164-0.129-0.362-0.22-0.588-0.271
			c-0.231-0.056-0.478-0.085-0.748-0.085h-2.201v6.525h2.22c0.384,0,0.705-0.052,0.964-0.155c0.26-0.104,0.469-0.244,0.63-0.416
			c0.162-0.173,0.275-0.377,0.342-0.607c0.067-0.233,0.102-0.476,0.102-0.733c0-0.437-0.108-0.788-0.321-1.049
			C79.628,4.645,79.339,4.489,78.971,4.441z M77.217,2.309h0.476c0.331,0,0.569,0.065,0.721,0.194
			c0.152,0.128,0.228,0.348,0.228,0.659c0,0.309-0.082,0.531-0.249,0.661c-0.168,0.134-0.434,0.197-0.8,0.197h-0.377V2.309z
			 M78.498,6.689c-0.195,0.14-0.454,0.209-0.768,0.209h-0.513V4.933h0.567c0.147,0,0.28,0.016,0.402,0.047
			c0.121,0.031,0.226,0.086,0.315,0.161c0.088,0.076,0.158,0.177,0.211,0.301c0.05,0.124,0.077,0.282,0.077,0.471
			C78.79,6.287,78.693,6.55,78.498,6.689z"/>
		<path fill="#CC3333" d="M82.92,6.486h1.738l0.299,1.381h1.371l-1.727-6.525h-1.627l-1.727,6.525h1.37L82.92,6.486z M83.779,2.477
			h0.018l0.63,2.932h-1.277L83.779,2.477z"/>
		<polygon fill="#CC3333" points="91.371,6.79 89.039,6.79 89.039,1.342 87.722,1.342 87.722,7.867 91.371,7.867 		"/>
		<path fill="#CC3333" d="M99.042,6.006c0.07-0.422,0.104-0.92,0.104-1.493c0-0.482-0.026-0.915-0.081-1.306
			c-0.055-0.391-0.16-0.725-0.314-1.002c-0.156-0.276-0.375-0.491-0.656-0.639c-0.278-0.148-0.648-0.223-1.104-0.223h-2.157v6.525
			h2.073c0.44,0,0.801-0.066,1.089-0.201c0.286-0.135,0.513-0.337,0.684-0.611C98.851,6.78,98.972,6.432,99.042,6.006z M97.79,5.665
			c-0.028,0.297-0.082,0.538-0.163,0.723c-0.082,0.182-0.195,0.312-0.334,0.393c-0.14,0.079-0.326,0.118-0.559,0.118H96.15V2.309
			h0.557c0.251,0,0.451,0.049,0.599,0.144c0.15,0.093,0.263,0.236,0.339,0.422c0.077,0.184,0.128,0.417,0.152,0.697
			C97.82,3.852,97.83,4.18,97.83,4.55C97.83,4.995,97.818,5.367,97.79,5.665z"/>
		<path fill="#CC3333" d="M102.191,5.107h0.703c0.275,0,0.471,0.076,0.585,0.218c0.118,0.147,0.18,0.348,0.193,0.605l0.037,1.252
			c0.005,0.128,0.017,0.251,0.037,0.369c0.017,0.119,0.059,0.223,0.128,0.315h1.425V7.813c-0.123-0.066-0.199-0.194-0.238-0.375
			c-0.024-0.184-0.044-0.448-0.056-0.795c-0.005-0.178-0.01-0.336-0.017-0.481c-0.005-0.142-0.015-0.275-0.027-0.397
			c-0.034-0.364-0.132-0.629-0.285-0.795c-0.15-0.162-0.393-0.269-0.721-0.32V4.634c0.373-0.08,0.648-0.26,0.824-0.537
			c0.177-0.275,0.265-0.634,0.265-1.071c0-0.569-0.155-0.988-0.459-1.267c-0.304-0.278-0.731-0.416-1.278-0.416h-2.431v6.525h1.316
			V5.107z M102.191,2.309h0.622c0.61,0,0.913,0.303,0.913,0.907c0,0.353-0.083,0.606-0.255,0.756
			c-0.171,0.147-0.415,0.223-0.731,0.223h-0.548V2.309z"/>
		<rect x="106.697" y="1.342" fill="#CC3333" width="1.315" height="6.525"/>
		<polygon fill="#CC3333" points="112.609,7.867 114.108,1.342 112.747,1.342 111.778,6.167 111.751,6.167 110.828,1.342 
			109.417,1.342 110.919,7.867 		"/>
		<polygon fill="#CC3333" points="116.768,5.034 118.961,5.034 118.961,3.957 116.768,3.957 116.768,2.421 119.098,2.421 
			119.098,1.342 115.453,1.342 115.453,7.867 119.189,7.867 119.189,6.79 116.768,6.79 		"/>
		<path fill="#CC3333" d="M122.023,5.107h0.702c0.277,0,0.471,0.076,0.586,0.218c0.118,0.147,0.179,0.348,0.191,0.605l0.037,1.252
			c0.007,0.128,0.02,0.251,0.037,0.369c0.02,0.119,0.061,0.223,0.13,0.315h1.423V7.813c-0.12-0.066-0.201-0.194-0.238-0.375
			c-0.022-0.184-0.042-0.448-0.054-0.795c-0.005-0.178-0.012-0.336-0.015-0.481c-0.007-0.142-0.02-0.275-0.029-0.397
			c-0.037-0.364-0.133-0.629-0.282-0.795c-0.155-0.162-0.395-0.269-0.724-0.32V4.634c0.37-0.08,0.648-0.26,0.819-0.537
			c0.179-0.275,0.267-0.634,0.267-1.071c0-0.569-0.152-0.988-0.456-1.267c-0.307-0.278-0.731-0.416-1.281-0.416h-2.429v6.525h1.315
			V5.107z M122.023,2.309h0.618c0.613,0,0.918,0.303,0.918,0.907c0,0.353-0.086,0.606-0.255,0.756
			c-0.172,0.147-0.415,0.223-0.734,0.223h-0.547V2.309z"/>
		<path fill="#CC3333" d="M131.014,5.107h0.704c0.275,0,0.469,0.076,0.584,0.218c0.118,0.147,0.182,0.348,0.194,0.605l0.037,1.252
			c0.005,0.128,0.017,0.251,0.034,0.369c0.02,0.119,0.061,0.223,0.13,0.315h1.425V7.813c-0.123-0.066-0.201-0.194-0.238-0.375
			c-0.025-0.184-0.042-0.448-0.056-0.795c-0.005-0.178-0.012-0.336-0.017-0.481c-0.005-0.142-0.015-0.275-0.027-0.397
			c-0.034-0.364-0.133-0.629-0.282-0.795c-0.152-0.162-0.395-0.269-0.724-0.32V4.634c0.373-0.08,0.648-0.26,0.822-0.537
			c0.177-0.275,0.265-0.634,0.265-1.071c0-0.569-0.152-0.988-0.456-1.267c-0.304-0.278-0.731-0.416-1.281-0.416h-2.429v6.525h1.315
			V5.107z M131.014,2.309h0.621c0.611,0,0.915,0.303,0.915,0.907c0,0.353-0.086,0.606-0.258,0.756
			c-0.169,0.147-0.412,0.223-0.731,0.223h-0.547V2.309z"/>
		<rect x="135.722" y="1.342" fill="#CC3333" width="1.317" height="6.525"/>
		<path fill="#CC3333" d="M140.693,7.968c0.714,0,1.271-0.157,1.668-0.469c0.4-0.314,0.599-0.817,0.599-1.506
			c0-0.2-0.017-0.383-0.054-0.548c-0.037-0.163-0.101-0.313-0.196-0.451c-0.096-0.136-0.221-0.265-0.378-0.383
			c-0.16-0.121-0.366-0.234-0.613-0.345l-1.016-0.439c-0.28-0.113-0.461-0.242-0.547-0.378c-0.086-0.135-0.13-0.305-0.13-0.507
			c0-0.097,0.012-0.193,0.034-0.283c0.02-0.091,0.061-0.171,0.118-0.244c0.057-0.067,0.135-0.126,0.233-0.168
			c0.098-0.042,0.221-0.064,0.366-0.064c0.255,0,0.439,0.083,0.547,0.25c0.11,0.169,0.164,0.407,0.164,0.718h1.264V2.969
			c0-0.31-0.049-0.578-0.152-0.799c-0.098-0.223-0.24-0.407-0.42-0.548c-0.182-0.144-0.393-0.247-0.64-0.312
			c-0.245-0.065-0.515-0.097-0.81-0.097c-0.626,0-1.116,0.157-1.479,0.476c-0.358,0.316-0.54,0.799-0.54,1.445
			c0,0.267,0.034,0.502,0.101,0.707c0.069,0.204,0.172,0.383,0.316,0.54c0.142,0.155,0.319,0.292,0.532,0.407
			c0.216,0.115,0.469,0.222,0.761,0.319c0.221,0.076,0.405,0.145,0.552,0.216c0.15,0.069,0.267,0.147,0.363,0.233
			c0.091,0.086,0.155,0.182,0.196,0.288c0.037,0.104,0.059,0.229,0.059,0.379c0,0.272-0.081,0.476-0.243,0.606
			c-0.16,0.132-0.344,0.197-0.545,0.197c-0.169,0-0.312-0.023-0.424-0.072c-0.113-0.049-0.204-0.115-0.27-0.202
			c-0.069-0.085-0.11-0.19-0.137-0.315c-0.022-0.124-0.034-0.263-0.034-0.416v-0.19h-1.317v0.262c0,0.606,0.162,1.067,0.478,1.391
			C139.419,7.806,139.949,7.968,140.693,7.968z"/>
		<polygon fill="#CC3333" points="145.776,5.93 146.257,5.191 147.601,7.867 149.083,7.867 147.111,4.138 148.882,1.342 
			147.459,1.342 145.791,3.957 145.776,3.957 145.776,1.342 144.456,1.342 144.456,7.867 145.776,7.867 		"/>
		<polygon fill="#CC3333" points="154.51,2.659 154.53,2.659 155.69,7.867 156.713,7.867 157.874,2.659 157.893,2.659 
			157.893,7.867 159.098,7.867 159.098,1.342 157.155,1.342 156.213,5.949 156.193,5.949 155.261,1.342 153.305,1.342 
			153.305,7.867 154.51,7.867 		"/>
		<path fill="#CC3333" d="M162.115,6.486h1.737l0.302,1.381h1.369l-1.727-6.525h-1.629l-1.725,6.525h1.369L162.115,6.486z
			 M162.974,2.477h0.017l0.63,2.932h-1.281L162.974,2.477z"/>
		<polygon fill="#CC3333" points="168.048,3.299 168.065,3.299 169.674,7.867 171.173,7.867 171.173,1.342 169.966,1.342 
			169.966,5.811 169.947,5.811 168.357,1.342 166.841,1.342 166.841,7.867 168.048,7.867 		"/>
		<path fill="#CC3333" d="M174.159,6.486h1.737l0.304,1.381h1.369l-1.727-6.525h-1.627l-1.727,6.525h1.371L174.159,6.486z
			 M175.018,2.477h0.02l0.631,2.932h-1.278L175.018,2.477z"/>
		<path fill="#CC3333" d="M179.534,7.759c0.253,0.14,0.579,0.209,0.984,0.209c0.312,0,0.577-0.054,0.797-0.159
			c0.223-0.106,0.415-0.288,0.572-0.545h0.017v0.603h0.969V4.349h-2.13v0.969h0.868v0.667c0,0.177-0.027,0.331-0.081,0.461
			c-0.054,0.131-0.123,0.238-0.206,0.325c-0.081,0.086-0.169,0.148-0.265,0.193c-0.093,0.042-0.182,0.063-0.263,0.063
			c-0.186,0-0.341-0.06-0.459-0.179c-0.12-0.118-0.211-0.288-0.275-0.511c-0.061-0.223-0.108-0.491-0.133-0.807
			c-0.024-0.316-0.037-0.67-0.037-1.061c0-0.816,0.069-1.402,0.211-1.757c0.14-0.35,0.37-0.529,0.687-0.529
			c0.135,0,0.248,0.037,0.341,0.105c0.096,0.07,0.172,0.16,0.231,0.265c0.064,0.107,0.106,0.223,0.135,0.353
			c0.027,0.126,0.042,0.253,0.042,0.374h1.261c0-0.666-0.159-1.175-0.473-1.531c-0.321-0.357-0.839-0.536-1.558-0.536
			c-0.417,0-0.768,0.071-1.05,0.213c-0.28,0.137-0.505,0.346-0.675,0.624c-0.172,0.277-0.292,0.621-0.361,1.037
			c-0.071,0.415-0.108,0.895-0.108,1.445c0,0.565,0.027,1.062,0.076,1.493c0.047,0.428,0.145,0.791,0.287,1.083
			C179.085,7.401,179.282,7.617,179.534,7.759z"/>
		<polygon fill="#CC3333" points="188.381,6.79 185.96,6.79 185.96,5.034 188.15,5.034 188.15,3.957 185.96,3.957 185.96,2.421 
			188.288,2.421 188.288,1.342 184.642,1.342 184.642,7.867 188.381,7.867 		"/>
		<polygon fill="#CC3333" points="191.131,2.659 191.146,2.659 192.309,7.867 193.334,7.867 194.495,2.659 194.512,2.659 
			194.512,7.867 195.717,7.867 195.717,1.342 193.771,1.342 192.831,5.949 192.812,5.949 191.88,1.342 189.924,1.342 189.924,7.867 
			191.131,7.867 		"/>
		<polygon fill="#CC3333" points="201.18,6.79 198.756,6.79 198.756,5.034 200.95,5.034 200.95,3.957 198.756,3.957 198.756,2.421 
			201.087,2.421 201.087,1.342 197.441,1.342 197.441,7.867 201.18,7.867 		"/>
		<polygon fill="#CC3333" points="203.982,3.299 203.999,3.299 205.606,7.867 207.107,7.867 207.107,1.342 205.9,1.342 205.9,5.811 
			205.883,5.811 204.293,1.342 202.772,1.342 202.772,7.867 203.982,7.867 		"/>
		<polygon fill="#CC3333" points="209.958,7.867 211.273,7.867 211.273,2.421 212.696,2.421 212.696,1.342 208.53,1.342 
			208.53,2.421 209.958,2.421 		"/>
	</g>
</g>
</svg>
